<?xml version="1.0" standalone="no"?>
<!DOCTYPE svg PUBLIC "-//W3C//DTD SVG 20010904//EN"
 "http://www.w3.org/TR/2001/REC-SVG-20010904/DTD/svg10.dtd">
<svg version="1.0" xmlns="http://www.w3.org/2000/svg"
 width="1280.000000pt" height="791.000000pt" viewBox="0 0 1280.000000 791.000000"
 preserveAspectRatio="xMidYMid meet">
<metadata>
Created by potrace 1.15, written by Peter Selinger 2001-2017
</metadata>
<g transform="translate(0.000000,791.000000) scale(0.100000,-0.100000)"
fill="#aa7755" stroke="none">
<path d="M5640 7674 c-14 -1 -92 -8 -175 -14 -82 -7 -168 -18 -190 -25 -22 -7
-92 -20 -155 -29 -63 -10 -180 -35 -260 -56 -80 -22 -176 -44 -215 -50 -384
-53 -637 -74 -730 -60 -38 6 -169 12 -290 14 -137 1 -228 7 -241 14 -14 7 -72
9 -185 5 -419 -17 -627 -2 -864 62 -196 53 -297 66 -492 66 -101 0 -189 -3
-194 -7 -5 -3 -17 0 -25 7 -36 29 -459 8 -514 -26 -15 -9 -120 -24 -223 -30
-49 -4 -141 -19 -205 -35 -64 -15 -153 -34 -197 -41 -58 -9 -89 -19 -112 -38
-18 -14 -33 -30 -33 -36 0 -5 -6 -22 -14 -36 -19 -36 -29 -149 -17 -181 8 -23
5 -32 -23 -70 -39 -50 -50 -117 -37 -213 6 -46 5 -65 -6 -82 -12 -17 -12 -26
-3 -44 14 -25 14 13 6 -842 -2 -345 -8 -669 -12 -720 -8 -117 -5 -120 120
-127 l91 -5 -1 -75 c-1 -41 -5 -110 -9 -153 l-8 -77 -43 -11 c-24 -6 -47 -16
-52 -23 -17 -23 -44 -134 -36 -147 5 -8 9 -403 10 -878 2 -834 2 -865 20 -872
11 -4 40 -8 66 -8 26 -1 50 -7 55 -13 4 -7 8 -57 8 -110 0 -80 -3 -98 -16
-101 -26 -7 -51 -104 -61 -242 -5 -71 -8 -148 -8 -170 0 -22 0 -76 -1 -120 -2
-111 -2 -71 4 -893 4 -560 8 -746 17 -757 8 -9 30 -15 59 -15 26 0 83 -5 127
-10 45 -6 191 -12 325 -14 965 -17 1003 -19 1259 -76 249 -55 353 -68 625 -80
132 -6 283 -17 335 -26 405 -63 724 -68 986 -14 49 10 150 41 224 70 111 42
163 56 295 76 199 32 495 41 780 25 110 -7 380 -16 600 -21 453 -10 876 -26
1075 -40 285 -21 576 -23 738 -6 84 9 230 16 325 16 95 0 208 4 252 9 44 6
190 15 325 21 135 6 294 15 354 21 60 5 209 16 330 24 122 8 296 21 387 29
161 15 699 24 717 12 13 -8 132 24 161 43 39 25 185 24 240 -2 39 -18 50 -19
95 -9 28 7 103 17 166 22 286 25 437 46 471 67 19 12 62 27 96 34 55 11 67 11
98 -4 45 -22 112 -22 196 0 62 16 68 16 120 -1 39 -13 98 -20 210 -24 l156 -5
6 24 c3 13 6 152 6 309 0 157 7 404 15 550 14 245 24 576 28 880 2 115 0 128
-21 163 -26 43 -48 57 -87 57 -26 0 -27 1 -20 46 3 26 6 73 6 105 0 47 5 63
25 88 24 28 27 41 35 173 5 79 14 287 20 463 6 176 15 394 20 485 36 623 40
829 16 875 -9 17 -16 36 -16 43 0 7 -7 15 -15 18 -20 8 -19 88 1 174 10 41 19
146 24 280 11 294 25 1229 23 1537 -1 232 -3 258 -23 320 -45 135 -79 184
-150 213 -16 7 -30 16 -30 21 0 5 -8 9 -17 9 -9 0 -30 4 -47 9 -17 6 -67 21
-111 35 -44 13 -112 27 -152 29 -39 3 -104 15 -143 27 -40 12 -78 19 -86 16
-7 -3 -16 -1 -19 4 -8 13 -45 13 -45 0 0 -23 -30 -7 -74 40 -26 28 -53 50 -61
50 -8 0 -16 4 -19 9 -5 8 -168 7 -206 0 -8 -2 -35 0 -60 5 -43 8 -45 7 -76
-29 -29 -35 -33 -37 -51 -24 -15 10 -47 13 -124 10 -140 -4 -209 -3 -371 9
-170 11 -327 -4 -561 -56 -175 -38 -484 -73 -687 -77 -63 -1 -212 6 -330 16
-236 20 -317 19 -600 -13 -444 -50 -1005 -52 -1470 -6 -85 8 -186 18 -225 21
-123 12 -297 35 -307 41 -28 18 -202 72 -214 67 -8 -3 -24 3 -35 13 -14 12
-38 19 -77 20 -61 1 -138 20 -162 39 -45 36 -101 45 -243 43 -78 -1 -153 -3
-167 -4z m3593 -2514 c42 -5 283 -10 535 -10 268 0 512 -5 590 -12 122 -11
132 -14 132 -33 0 -11 5 -71 10 -134 6 -63 8 -116 6 -119 -12 -11 -343 41
-439 70 -50 15 -82 19 -120 14 -30 -4 -92 0 -147 9 -52 8 -149 17 -215 18
-116 3 -124 2 -230 -34 -154 -52 -199 -59 -374 -65 -84 -2 -194 -9 -245 -14
-50 -5 -127 -10 -171 -10 -44 0 -123 -7 -175 -15 -66 -10 -129 -13 -205 -9
-111 7 -370 -8 -480 -27 -129 -23 -529 -9 -818 28 -112 14 -158 15 -368 4
-132 -6 -286 -18 -342 -25 -240 -33 -344 -41 -552 -41 -165 1 -239 5 -295 17
-41 9 -138 20 -215 23 -99 5 -165 13 -225 30 -120 33 -573 79 -705 72 -142 -7
-260 -24 -408 -58 -71 -16 -165 -35 -209 -41 -128 -17 -425 -5 -618 26 -91 14
-219 29 -285 33 l-120 8 0 122 c0 67 3 124 7 128 14 15 653 26 1595 29 539 2
986 7 992 11 6 3 98 1 204 -5 211 -12 322 -13 592 -5 99 3 802 7 1563 10 761
2 1385 5 1387 7 9 8 275 7 348 -2z m-703 -2411 c107 -5 247 -14 310 -20 78 -8
235 -9 485 -4 204 4 525 10 715 14 190 3 347 5 350 3 7 -5 6 -219 -1 -226 -10
-11 -309 -26 -511 -26 -114 0 -314 7 -445 16 -257 17 -452 14 -563 -11 -77
-17 -364 -19 -635 -5 -99 5 -448 10 -775 10 -327 0 -683 5 -790 10 -200 10
-598 11 -1335 5 -442 -4 -1830 -8 -2218 -6 l-228 1 -34 78 c-19 42 -42 90 -50
106 l-16 29 238 -9 c344 -13 1037 -11 1258 4 105 6 278 18 385 25 205 13 1046
12 1175 -1 39 -4 225 -4 415 0 190 4 543 8 785 9 242 1 483 5 535 9 112 9 672
2 950 -11z m-6680 -189 c270 -13 312 -17 185 -19 -126 -1 -506 18 -557 29 -34
7 -24 8 47 5 50 -3 196 -9 325 -15z m403 -27 c-13 -2 -35 -2 -50 0 -16 2 -5 4
22 4 28 0 40 -2 28 -4z"/>
</g>
</svg>
