<?xml version="1.0" standalone="no"?>
<!DOCTYPE svg PUBLIC "-//W3C//DTD SVG 20010904//EN"
 "http://www.w3.org/TR/2001/REC-SVG-20010904/DTD/svg10.dtd">
<svg version="1.0" xmlns="http://www.w3.org/2000/svg"
 width="1280.000000pt" height="938.000000pt" viewBox="0 0 1280.000000 938.000000"
 preserveAspectRatio="xMidYMid meet">
<metadata>
Created by potrace 1.15, written by Peter Selinger 2001-2017
</metadata>
<g transform="translate(0.000000,938.000000) scale(0.100000,-0.100000)"
fill="#aa7755" stroke="none">
<path d="M36 9316 c-3 -33 -10 -266 -16 -516 -6 -250 -13 -533 -17 -627 -6
-157 -5 -173 10 -173 13 0 17 -10 17 -44 l0 -44 277 -93 c153 -50 282 -94 287
-97 5 -3 -118 -44 -273 -93 -156 -48 -284 -89 -285 -91 -1 -2 4 -94 12 -205
12 -156 18 -203 29 -203 9 0 13 -13 13 -40 0 -28 -4 -40 -14 -40 -21 0 -23
-42 -41 -744 -14 -545 -14 -620 -1 -630 8 -6 16 -29 18 -50 l3 -39 283 -95
c155 -52 281 -97 279 -98 -2 -2 -127 -42 -277 -89 -151 -47 -277 -88 -280 -93
-12 -14 24 -405 37 -410 7 -2 13 -20 13 -39 l0 -36 983 7 c540 3 1702 11 2582
16 880 6 2268 15 3085 20 817 5 2392 14 3500 20 1108 6 2101 13 2207 16 l191
6 6 72 c3 39 8 313 11 608 l6 537 -33 5 c-18 3 -143 10 -278 16 -277 12 -442
22 -438 25 2 2 99 26 217 54 l213 51 178 0 178 0 -13 50 c-12 44 -11 50 2 50
11 0 14 6 9 23 -3 12 -16 68 -28 124 l-23 102 -50 5 c-27 3 -275 10 -550 17
-469 11 -799 24 -675 28 30 1 327 12 660 26 333 14 613 25 623 25 16 0 17 15
17 180 0 99 -1 180 -2 180 -2 1 -2725 14 -6053 30 -3327 16 -6068 31 -6090 33
-22 2 192 4 475 5 283 1 1546 9 2805 17 1260 8 3757 24 5550 35 1792 12 3262
23 3264 26 6 5 24 1214 19 1219 -2 2 -173 11 -380 21 -207 10 -376 20 -374 21
2 2 88 24 192 50 186 46 193 47 395 52 l206 6 -12 48 c-10 39 -10 47 2 47 7 0
13 3 13 6 0 16 -54 240 -59 246 -3 3 -294 13 -646 22 -352 9 -651 18 -665 19
-14 2 22 6 80 10 124 8 1120 47 1203 47 l57 0 0 183 0 184 -1612 7 c-887 4
-2452 11 -3478 16 -1026 5 -2961 14 -4300 20 -1339 5 -2616 12 -2837 14 l-402
4 -5 -62z"/>
<path d="M56 4648 c-3 -35 -12 -342 -21 -683 -14 -556 -14 -621 0 -631 9 -7
15 -27 15 -50 l0 -39 280 -95 c154 -52 280 -97 280 -100 0 -3 -123 -43 -272
-89 -150 -46 -275 -85 -278 -86 -3 -2 1 -96 9 -209 11 -152 18 -206 27 -206 8
0 14 -16 16 -37 l3 -38 375 3 c206 1 3028 19 6270 38 3242 20 5897 38 5900 41
5 5 23 1214 17 1219 -2 2 -160 11 -353 20 -192 8 -360 18 -374 21 -17 3 37 20
160 50 181 44 190 46 395 52 153 4 209 9 208 18 -14 71 -15 95 -5 89 7 -4 12
-4 12 -1 0 17 -53 241 -59 247 -6 7 -421 21 -1031 35 -182 4 -289 10 -265 14
22 4 315 17 650 29 336 12 625 23 643 26 l32 5 0 178 0 178 -1352 7 c-3120 15
-5416 26 -7548 36 -1246 5 -2594 12 -2997 15 l-731 6 -6 -63z"/>
<path d="M136 2258 c-3 -35 -10 -270 -16 -523 -6 -253 -13 -533 -17 -622 -5
-147 -4 -163 10 -163 13 0 17 -10 17 -44 0 -51 -31 -37 328 -157 134 -45 242
-83 240 -84 -2 -2 -130 -42 -286 -90 -229 -72 -281 -91 -278 -104 2 -9 10 -99
17 -201 9 -134 16 -187 26 -193 7 -4 13 -24 13 -44 l0 -35 803 6 c441 4 1531
11 2422 16 891 6 2309 15 3150 20 842 5 2354 14 3360 20 1007 6 2051 13 2322
16 l491 6 6 82 c3 44 8 320 11 611 l6 531 -358 17 c-197 10 -367 17 -377 17
-42 0 0 13 180 57 184 45 194 47 390 52 l201 6 -12 48 c-10 39 -10 47 2 47 17
0 17 -5 -16 135 l-28 120 -429 12 c-627 17 -901 26 -884 30 15 3 1243 53 1306
53 l34 0 0 179 0 179 -212 6 c-185 4 -11507 57 -12170 56 l-246 0 -6 -62z"/>
</g>
</svg>
